<?xml version="1.0" encoding="UTF-8"?>
<svg id="_图层_1" data-name="图层_1" xmlns="http://www.w3.org/2000/svg" version="1.1" xmlns:xlink="http://www.w3.org/1999/xlink" viewBox="0 0 457.57 456.75">
  <!-- Generator: Adobe Illustrator 29.4.0, SVG Export Plug-In . SVG Version: 2.1.0 Build 152)  -->
  <defs>
    <style>
      .st0 {
        fill: url(#_未命名的渐变_17);
      }

      .st1 {
        fill: url(#_未命名的渐变_8);
      }

      .st2 {
        stroke: url(#_未命名的渐变_22);
      }

      .st2, .st3 {
        stroke-width: .25px;
      }

      .st2, .st3, .st4, .st5 {
        fill: none;
      }

      .st6 {
        fill: url(#_未命名的渐变_11);
      }

      .st7 {
        fill: url(#_未命名的渐变_24);
      }

      .st8 {
        fill: url(#_未命名的渐变_9);
      }

      .st9 {
        fill: url(#_未命名的渐变_15);
      }

      .st10 {
        fill: url(#_未命名的渐变_6);
      }

      .st11 {
        fill: url(#_未命名的渐变_7);
      }

      .st12 {
        fill: url(#_未命名的渐变_3);
      }

      .st3 {
        stroke: url(#_未命名的渐变_21);
      }

      .st13 {
        fill: url(#_未命名的渐变_20);
      }

      .st14 {
        fill: url(#_未命名的渐变_13);
      }

      .st15 {
        fill: url(#_未命名的渐变);
      }

      .st16 {
        fill: url(#_未命名的渐变_23);
      }

      .st17 {
        fill: url(#_未命名的渐变_12);
      }

      .st18 {
        fill: url(#_未命名的渐变_19);
      }

      .st4 {
        stroke: url(#_未命名的渐变_10);
      }

      .st4, .st5 {
        stroke-miterlimit: 10;
      }

      .st19 {
        fill: url(#_未命名的渐变_25);
        fill-rule: evenodd;
      }

      .st20 {
        fill: url(#_未命名的渐变_16);
      }

      .st21 {
        fill: url(#_未命名的渐变_4);
      }

      .st22 {
        fill: url(#_未命名的渐变_14);
      }

      .st23 {
        fill: url(#_未命名的渐变_18);
      }

      .st5 {
        stroke: url(#_未命名的渐变_5);
      }

      .st24 {
        fill: url(#_未命名的渐变_2);
      }
    </style>
    <radialGradient id="_未命名的渐变" data-name="未命名的渐变" cx="-538.17" cy="1014.5" fx="-538.17" fy="1014.5" r="16.31" gradientTransform="translate(-24291.25 -10809.65) rotate(141.91) scale(23.51 -23.51)" gradientUnits="userSpaceOnUse">
      <stop offset="0" stop-color="#eeebf0"/>
      <stop offset=".49" stop-color="#d1bee3"/>
      <stop offset="1" stop-color="#d0bce2"/>
    </radialGradient>
    <linearGradient id="_未命名的渐变_2" data-name="未命名的渐变 2" x1="163.13" y1="626.5" x2="32.63" y2="626.5" gradientTransform="translate(0 887.51) scale(1 -1)" gradientUnits="userSpaceOnUse">
      <stop offset="0" stop-color="#d5b2c0" stop-opacity="0"/>
      <stop offset="1" stop-color="#b4878d"/>
    </linearGradient>
    <linearGradient id="_未命名的渐变_3" data-name="未命名的渐变 3" x1="228.38" y1="479.69" x2="228.38" y2="414.44" gradientTransform="translate(0 887.51) scale(1 -1)" gradientUnits="userSpaceOnUse">
      <stop offset="0" stop-color="#b17edb" stop-opacity="0"/>
      <stop offset="1" stop-color="#a56bd6"/>
    </linearGradient>
    <radialGradient id="_未命名的渐变_4" data-name="未命名的渐变 4" cx="-349.41" cy="965.26" fx="-349.41" fy="965.26" r="16.31" gradientTransform="translate(3966.96 18460.1) rotate(-5.71) scale(5.02 -19.21)" gradientUnits="userSpaceOnUse">
      <stop offset="0" stop-color="#f0eaf6"/>
      <stop offset="1" stop-color="#e7e0ef" stop-opacity="0"/>
    </radialGradient>
    <linearGradient id="_未命名的渐变_5" data-name="未命名的渐变 5" x1="24.47" y1="855.7" x2="24.47" y2="707.25" gradientTransform="translate(0 887.51) scale(1 -1)" gradientUnits="userSpaceOnUse">
      <stop offset="0" stop-color="#ea248a"/>
      <stop offset="1" stop-color="#df2232"/>
    </linearGradient>
    <linearGradient id="_未命名的渐变_6" data-name="未命名的渐变 6" x1="16.31" y1="724.38" x2="16.31" y2="544.94" gradientTransform="translate(0 887.51) scale(1 -1)" gradientUnits="userSpaceOnUse">
      <stop offset="0" stop-color="#e93273"/>
      <stop offset="1" stop-color="#d21844"/>
    </linearGradient>
    <linearGradient id="_未命名的渐变_7" data-name="未命名的渐变 7" x1="228.38" y1="631.38" x2="228.38" y2="734.31" gradientTransform="translate(0 887.51) scale(1 -1)" gradientUnits="userSpaceOnUse">
      <stop offset="0" stop-color="#443e75"/>
      <stop offset="1" stop-color="#2f1a3b"/>
    </linearGradient>
    <linearGradient id="_未命名的渐变_8" data-name="未命名的渐变 8" x1="228.38" y1="501.13" x2="228.38" y2="546.75" gradientTransform="translate(0 887.51) scale(1 -1)" gradientUnits="userSpaceOnUse">
      <stop offset="0" stop-color="#39325e"/>
      <stop offset="1" stop-color="#2b1831"/>
    </linearGradient>
    <radialGradient id="_未命名的渐变_9" data-name="未命名的渐变 9" cx="-527.93" cy="1252.69" fx="-527.93" fy="1252.69" r="16.31" gradientTransform="translate(-2736.72 445.83) rotate(104.04) scale(2.06 -2.06)" gradientUnits="userSpaceOnUse">
      <stop offset="0" stop-color="#ff6c82"/>
      <stop offset=".44" stop-color="#ff2455"/>
      <stop offset="1" stop-color="#d9206c"/>
    </radialGradient>
    <linearGradient id="_未命名的渐变_10" data-name="未命名的渐变 10" x1="432.28" y1="854.88" x2="432.28" y2="706.6" gradientTransform="translate(0 887.51) scale(1 -1)" gradientUnits="userSpaceOnUse">
      <stop offset="0" stop-color="#ea248a"/>
      <stop offset="1" stop-color="#df2232"/>
    </linearGradient>
    <radialGradient id="_未命名的渐变_11" data-name="未命名的渐变 11" cx="-570.91" cy="1418.52" fx="-570.91" fy="1418.52" r="16.31" gradientTransform="translate(-2785.88 463.84) rotate(104.04) scale(2.13 -2.13)" gradientUnits="userSpaceOnUse">
      <stop offset="0" stop-color="#ff6c82"/>
      <stop offset=".44" stop-color="#ff2455"/>
      <stop offset="1" stop-color="#d9206c"/>
    </radialGradient>
    <radialGradient id="_未命名的渐变_12" data-name="未命名的渐变 12" cx="-734.79" cy="1101.53" fx="-734.79" fy="1101.53" r="18.36" gradientTransform="translate(-2467.83 -3189.28) rotate(168.69) scale(2.55 -3.49)" gradientUnits="userSpaceOnUse">
      <stop offset="0" stop-color="#322649"/>
      <stop offset="1" stop-color="#342950" stop-opacity="0"/>
    </radialGradient>
    <radialGradient id="_未命名的渐变_13" data-name="未命名的渐变 13" cx="-802.52" cy="1111.42" fx="-802.52" fy="1111.42" r="18.36" gradientTransform="translate(-2456.33 -3189.28) rotate(168.69) scale(2.55 -3.49)" gradientUnits="userSpaceOnUse">
      <stop offset="0" stop-color="#322649"/>
      <stop offset="1" stop-color="#342950" stop-opacity="0"/>
    </radialGradient>
    <linearGradient id="_未命名的渐变_14" data-name="未命名的渐变 14" x1="237.24" y1="867.4" x2="212.77" y2="810.3" gradientTransform="translate(0 887.51) scale(1 -1)" gradientUnits="userSpaceOnUse">
      <stop offset="0" stop-color="#ffce2b"/>
      <stop offset="1" stop-color="#d9862d"/>
    </linearGradient>
    <radialGradient id="_未命名的渐变_15" data-name="未命名的渐变 15" cx="-473.85" cy="1056.54" fx="-473.85" fy="1056.54" r="16.31" gradientTransform="translate(-10337.01 1454.19) rotate(90) scale(3 -10)" gradientUnits="userSpaceOnUse">
      <stop offset=".43" stop-color="#ca7e29" stop-opacity="0"/>
      <stop offset="1" stop-color="#673f13"/>
    </radialGradient>
    <linearGradient id="_未命名的渐变_16" data-name="未命名的渐变 16" x1="440.44" y1="725.52" x2="440.44" y2="545.92" gradientTransform="translate(0 887.51) scale(1 -1)" gradientUnits="userSpaceOnUse">
      <stop offset="0" stop-color="#ff30aa"/>
      <stop offset="1" stop-color="#ff2353"/>
    </linearGradient>
    <linearGradient id="_未命名的渐变_17" data-name="未命名的渐变 17" x1="154.97" y1="683.6" x2="114.19" y2="683.6" gradientTransform="translate(0 887.51) scale(1 -1)" gradientUnits="userSpaceOnUse">
      <stop offset="0" stop-color="#29b6fe"/>
      <stop offset="1" stop-color="#1769a8"/>
    </linearGradient>
    <radialGradient id="_未命名的渐变_18" data-name="未命名的渐变 18" cx="-407.34" cy="1553.1" fx="-407.34" fy="1553.1" r="16.31" gradientTransform="translate(-1629.82 1205.95) rotate(90) scale(2.5 -1.14)" gradientUnits="userSpaceOnUse">
      <stop offset="0" stop-color="#54c8ff"/>
      <stop offset="1" stop-color="#54c8ff" stop-opacity="0"/>
    </radialGradient>
    <linearGradient id="_未命名的渐变_19" data-name="未命名的渐变 19" x1="342.56" y1="683.6" x2="301.78" y2="683.6" gradientTransform="translate(0 887.51) scale(1 -1)" gradientUnits="userSpaceOnUse">
      <stop offset="0" stop-color="#29b6fe"/>
      <stop offset="1" stop-color="#1769a8"/>
    </linearGradient>
    <radialGradient id="_未命名的渐变_20" data-name="未命名的渐变 20" cx="-407.34" cy="1707.04" fx="-407.34" fy="1707.04" r="16.31" gradientTransform="translate(-1618.32 1205.95) rotate(90) scale(2.5 -1.14)" gradientUnits="userSpaceOnUse">
      <stop offset="0" stop-color="#54c8ff"/>
      <stop offset="1" stop-color="#54c8ff" stop-opacity="0"/>
    </radialGradient>
    <linearGradient id="_未命名的渐变_21" data-name="未命名的渐变 21" x1="26.51" y1="805.94" x2="26.51" y2="773.32" gradientTransform="translate(0 887.51) scale(1 -1)" gradientUnits="userSpaceOnUse">
      <stop offset="0" stop-color="#ff96cb"/>
      <stop offset="1" stop-color="#ff6db7" stop-opacity="0"/>
    </linearGradient>
    <linearGradient id="_未命名的渐变_22" data-name="未命名的渐变 22" x1="434.32" y1="805.94" x2="434.32" y2="773.32" gradientTransform="translate(0 887.51) scale(1 -1)" gradientUnits="userSpaceOnUse">
      <stop offset="0" stop-color="#ff96cb"/>
      <stop offset="1" stop-color="#ff6db7" stop-opacity="0"/>
    </linearGradient>
    <radialGradient id="_未命名的渐变_23" data-name="未命名的渐变 23" cx="-335.25" cy="1910.67" fx="-335.25" fy="1910.67" r="16.31" gradientTransform="translate(-1470.23 690.47) rotate(90) scale(1.5 -1)" gradientUnits="userSpaceOnUse">
      <stop offset="0" stop-color="#ff72c1"/>
      <stop offset="1" stop-color="#ff6ebf" stop-opacity="0"/>
    </radialGradient>
    <radialGradient id="_未命名的渐变_24" data-name="未命名的渐变 24" cx="-445.19" cy="2640.62" fx="-445.19" fy="2640.62" r="16.31" gradientTransform="translate(-1036.83 2239.9) rotate(90) scale(4.5 -.56)" gradientUnits="userSpaceOnUse">
      <stop offset="0" stop-color="#ff4b9c"/>
      <stop offset="1" stop-color="#ff73c1" stop-opacity="0"/>
    </radialGradient>
    <radialGradient id="_未命名的渐变_25" data-name="未命名的渐变 25" cx="-390.61" cy="1772.86" fx="-390.61" fy="1772.86" r="16.31" gradientTransform="translate(-1479.23 423.23) rotate(90) scale(1 -1)" gradientUnits="userSpaceOnUse">
      <stop offset="0" stop-color="#ffea60"/>
      <stop offset="1" stop-color="#ffef66" stop-opacity="0"/>
    </radialGradient>
  </defs>
  <path class="st15" d="M327.07,456.75h-197.38c-53.67,0-97.06-43.39-97.06-97.06v-196.08c0-54.32,44.04-98.37,98.37-98.37h194.94c54.16,0,98.2,44.04,98.2,98.37v196.24c0,53.51-43.39,96.9-97.06,96.9"/>
  <path class="st24" d="M32.63,163.13c0-54.06,43.82-97.88,97.88-97.88h32.63v391.5h-32.63c-54.06,0-97.88-43.82-97.88-97.88v-195.75Z"/>
  <path class="st12" d="M32.63,358.88h391.5c0,54.06-43.82,97.88-97.88,97.88h-195.75c-54.06,0-97.88-43.82-97.88-97.88"/>
  <path class="st21" d="M293.63,65.25h32.63c54.06,0,97.88,43.82,97.88,97.88v195.75c0,54.06-43.82,97.88-97.88,97.88h-32.63V65.25Z"/>
  <path class="st5" d="M24.47,31.81v148.44"/>
  <path class="st10" d="M32.63,163.13v179.44c-17.94,0-32.63-14.68-32.63-32.59v-114.25c0-17.91,14.68-32.59,32.63-32.59"/>
  <path class="st11" d="M338.54,269.16H118.22c-38.24-.09-69.22-31.08-69.28-69.33.06-38.24,31.04-69.24,69.28-69.33h220.32c38.24.09,69.22,31.08,69.28,69.33,0,38.02-31.29,69.33-69.28,69.33"/>
  <path class="st1" d="M269.61,391.5h-82.48c-13.25,0-24.01-10.99-24.01-24.47s10.77-24.47,24.01-24.47h82.48c13.23,0,24.01,10.99,24.01,24.47s-10.77,24.47-24.01,24.47"/>
  <path class="st8" d="M24.47,48.94c13.51,0,24.47-10.96,24.47-24.47S37.98,0,24.47,0,0,10.96,0,24.47s10.96,24.47,24.47,24.47"/>
  <path class="st4" d="M432.28,32.63v148.28"/>
  <path class="st6" d="M432.28,50.57c13.96,0,25.29-11.32,25.29-25.28,0-13.96-11.32-25.29-25.28-25.29h0c-13.96,0-25.28,11.32-25.28,25.29,0,13.96,11.32,25.28,25.28,25.28"/>
  <rect class="st17" x="81.56" y="163.13" width="73.41" height="97.88" rx="2" ry="2"/>
  <rect class="st14" x="269.16" y="163.13" width="73.41" height="97.88" rx="2" ry="2"/>
  <path class="st22" d="M171.28,16.31h114.19c13.51,0,24.47,10.96,24.47,24.47h0c0,13.51-10.96,24.47-24.47,24.47h-114.19c-13.51,0-24.47-10.96-24.47-24.47h0c0-13.51,10.96-24.47,24.47-24.47Z"/>
  <path class="st9" d="M171.28,16.31h114.19c13.51,0,24.47,10.96,24.47,24.47h0c0,13.51-10.96,24.47-24.47,24.47h-114.19c-13.51,0-24.47-10.96-24.47-24.47h0c0-13.51,10.96-24.47,24.47-24.47Z"/>
  <path class="st20" d="M424.13,341.59v-179.6c17.94,0,32.63,14.68,32.63,32.63v114.35c0,17.94-14.68,32.63-32.63,32.63"/>
  <path class="st0" d="M134.58,163.13h0c11.26,0,20.39,9.13,20.39,20.39v40.78c0,11.26-9.13,20.39-20.39,20.39h0c-11.26,0-20.39-9.13-20.39-20.39v-40.78c0-11.26,9.13-20.39,20.39-20.39Z"/>
  <path class="st23" d="M134.58,163.13h0c11.26,0,20.39,9.13,20.39,20.39v40.78c0,11.26-9.13,20.39-20.39,20.39h0c-11.26,0-20.39-9.13-20.39-20.39v-40.78c0-11.26,9.13-20.39,20.39-20.39Z"/>
  <path class="st18" d="M322.17,163.13h0c11.26,0,20.39,9.13,20.39,20.39v40.78c0,11.26-9.13,20.39-20.39,20.39h0c-11.26,0-20.39-9.13-20.39-20.39v-40.78c0-11.26,9.13-20.39,20.39-20.39Z"/>
  <path class="st13" d="M322.17,163.13h0c11.26,0,20.39,9.13,20.39,20.39v40.78c0,11.26-9.13,20.39-20.39,20.39h0c-11.26,0-20.39-9.13-20.39-20.39v-40.78c0-11.26,9.13-20.39,20.39-20.39Z"/>
  <path class="st3" d="M26.51,48.94v97.88"/>
  <path class="st2" d="M434.32,48.94v97.88"/>
  <ellipse class="st16" cx="440.44" cy="187.6" rx="16.31" ry="24.47"/>
  <ellipse class="st7" cx="440.44" cy="236.53" rx="16.31" ry="73.41"/>
  <path class="st19" d="M289.97,16.72c9.94,1.86,17.71,9.64,19.56,19.58-2.03,8.78-10.8,14.24-19.58,12.21-8.78-2.03-14.24-10.8-12.21-19.58,1.41-6.07,6.14-10.8,12.21-12.21"/>
</svg>