<svg xmlns="http://www.w3.org/2000/svg" data-name="图层_1" viewBox="0 0 457.57 456.75"><path d="M327.07 456.75H129.69c-53.67 0-97.06-43.39-97.06-97.06V163.61c0-54.32 44.04-98.37 98.37-98.37h194.94c54.16 0 98.2 44.04 98.2 98.37v196.24c0 53.51-43.39 96.9-97.06 96.9" style="fill:url(#_未命名的渐变)"/><path d="M32.63 163.13c0-54.06 43.82-97.88 97.88-97.88h32.63v391.5h-32.63c-54.06 0-97.88-43.82-97.88-97.88V163.12Z" style="fill:url(#_未命名的渐变_2)"/><path d="M32.63 358.88h391.5c0 54.06-43.82 97.88-97.88 97.88H130.5c-54.06 0-97.88-43.82-97.88-97.88" style="fill:url(#_未命名的渐变_3)"/><path d="M293.63 65.25h32.63c54.06 0 97.88 43.82 97.88 97.88v195.75c0 54.06-43.82 97.88-97.88 97.88h-32.63z" style="fill:url(#_未命名的渐变_4)"/><path d="M24.47 31.81v148.44" style="fill:none;stroke-miterlimit:10;stroke:url(#_未命名的渐变_5)"/><path d="M32.63 163.13v179.44C14.69 342.57 0 327.89 0 309.98V195.73c0-17.91 14.68-32.59 32.63-32.59" style="fill:url(#_未命名的渐变_6)"/><path d="M338.54 269.16H118.22c-38.24-.09-69.22-31.08-69.28-69.33.06-38.24 31.04-69.24 69.28-69.33h220.32c38.24.09 69.22 31.08 69.28 69.33 0 38.02-31.29 69.33-69.28 69.33" style="fill:url(#_未命名的渐变_7)"/><path d="M269.61 391.5h-82.48c-13.25 0-24.01-10.99-24.01-24.47s10.77-24.47 24.01-24.47h82.48c13.23 0 24.01 10.99 24.01 24.47s-10.77 24.47-24.01 24.47" style="fill:url(#_未命名的渐变_8)"/><path d="M24.47 48.94c13.51 0 24.47-10.96 24.47-24.47S37.98 0 24.47 0 0 10.96 0 24.47s10.96 24.47 24.47 24.47" style="fill:url(#_未命名的渐变_9)"/><path d="M432.28 32.63v148.28" style="fill:none;stroke:url(#_未命名的渐变_10);stroke-miterlimit:10"/><path d="M432.28 50.57c13.96 0 25.29-11.32 25.29-25.28S446.25 0 432.29 0s-25.28 11.32-25.28 25.29c0 13.96 11.32 25.28 25.28 25.28" style="fill:url(#_未命名的渐变_11)"/><rect width="73.41" height="97.88" x="81.56" y="163.13" rx="2" ry="2" style="fill:url(#_未命名的渐变_12)"/><rect width="73.41" height="97.88" x="269.16" y="163.13" rx="2" ry="2" style="fill:url(#_未命名的渐变_13)"/><path d="M171.28 16.31h114.19c13.51 0 24.47 10.96 24.47 24.47s-10.96 24.47-24.47 24.47H171.28c-13.51 0-24.47-10.96-24.47-24.47s10.96-24.47 24.47-24.47" style="fill:url(#_未命名的渐变_14)"/><path d="M171.28 16.31h114.19c13.51 0 24.47 10.96 24.47 24.47s-10.96 24.47-24.47 24.47H171.28c-13.51 0-24.47-10.96-24.47-24.47s10.96-24.47 24.47-24.47" style="fill:url(#_未命名的渐变_15)"/><path d="M424.13 341.59v-179.6c17.94 0 32.63 14.68 32.63 32.63v114.35c0 17.94-14.68 32.63-32.63 32.63" style="fill:url(#_未命名的渐变_16)"/><path d="M134.58 163.13c11.26 0 20.39 9.13 20.39 20.39v40.78c0 11.26-9.13 20.39-20.39 20.39s-20.39-9.13-20.39-20.39v-40.78c0-11.26 9.13-20.39 20.39-20.39" style="fill:url(#_未命名的渐变_17)"/><path d="M134.58 163.13c11.26 0 20.39 9.13 20.39 20.39v40.78c0 11.26-9.13 20.39-20.39 20.39s-20.39-9.13-20.39-20.39v-40.78c0-11.26 9.13-20.39 20.39-20.39" style="fill:url(#_未命名的渐变_18)"/><path d="M322.17 163.13c11.26 0 20.39 9.13 20.39 20.39v40.78c0 11.26-9.13 20.39-20.39 20.39s-20.39-9.13-20.39-20.39v-40.78c0-11.26 9.13-20.39 20.39-20.39" style="fill:url(#_未命名的渐变_19)"/><path d="M322.17 163.13c11.26 0 20.39 9.13 20.39 20.39v40.78c0 11.26-9.13 20.39-20.39 20.39s-20.39-9.13-20.39-20.39v-40.78c0-11.26 9.13-20.39 20.39-20.39" style="fill:url(#_未命名的渐变_20)"/><path d="M26.51 48.94v97.88" style="stroke-width:.25px;fill:none;stroke:url(#_未命名的渐变_21)"/><path d="M434.32 48.94v97.88" style="stroke:url(#_未命名的渐变_22);stroke-width:.25px;fill:none"/><ellipse cx="440.44" cy="187.6" rx="16.31" ry="24.47" style="fill:url(#_未命名的渐变_23)"/><ellipse cx="440.44" cy="236.53" rx="16.31" ry="73.41" style="fill:url(#_未命名的渐变_24)"/><path d="M289.97 16.72a24.47 24.47 0 0 1 19.56 19.58c-2.03 8.78-10.8 14.24-19.58 12.21s-14.24-10.8-12.21-19.58c1.41-6.07 6.14-10.8 12.21-12.21" style="fill:url(#_未命名的渐变_25);fill-rule:evenodd"/></svg>